<svg xmlns="http://www.w3.org/2000/svg" viewBox="0 0 724.44 254.42"><defs><style>.cls-1{fill:#104b85;}.cls-1,.cls-2,.cls-3{stroke:#929497;stroke-miterlimit:10;}.cls-1,.cls-2{stroke-width:5.27px;}.cls-2,.cls-3{fill:#b5d3e6;}.cls-3{stroke-width:5.27px;}</style></defs><g id="Layer_2" data-name="Layer 2"><g id="Layer_1-2" data-name="Layer 1"><path class="cls-1" d="M185.36,6.47V61.26L76.05,61A11.46,11.46,0,0,0,64.57,72.42v39.09A11.45,11.45,0,0,0,76,123H185v54.82H32.81A30.17,30.17,0,0,1,2.64,147.61V36.37A30.17,30.17,0,0,1,32.86,6.2Z"/><polygon class="cls-1" points="379.34 172.41 379.34 247.49 356.67 226.16 264.91 138.79 264.91 177.78 202.98 177.78 202.98 6.15 379.34 172.41"/><polygon class="cls-2" points="379.33 147.21 309.35 81.31 309.35 6.11 379.26 72.02 448.78 6.15 510.77 6.15 510.77 177.78 448.78 247.49 448.78 81.52 379.33 147.21"/><rect class="cls-1" x="528.72" y="6.17" width="61.93" height="171.63"/><path class="cls-1" d="M668.06,122.93V123a54.8,54.8,0,0,1,53.75,54.79c0,.87,0,1.74-.07,2.61h.07v67.1H658.5v-70A54.79,54.79,0,0,0,604.76,123v-.06a54.81,54.81,0,0,0,53.75-54.67V6.15h63.3v62A54.8,54.8,0,0,1,668.06,122.93Z"/><g id="_1878" data-name="1878"><path class="cls-3" d="M43,247.5H31.33V204.58H23.52V192.87H43Z"/><path class="cls-3" d="M116.22,192.87q15.61,0,15.61,15.61v2q0,6-2.34,9.75,2.34,3.72,2.34,9.76v1.95q0,15.62-15.61,15.61H92.81q-15.6,0-15.6-15.61v-1.95q0-6,2.34-9.76-2.34-3.7-2.34-9.75v-2q0-15.61,15.6-15.61Zm3.91,15.61q0-3.9-3.91-3.9H92.81q-3.9,0-3.9,3.9v2q0,3.9,3.9,3.9h23.41q3.91,0,3.91-3.9ZM88.91,231.89q0,3.9,3.9,3.9h23.41q3.91,0,3.91-3.9v-1.95q0-3.9-3.91-3.9H92.81q-3.9,0-3.9,3.9Z"/><path class="cls-3" d="M228.9,192.87,174.28,247.5H157.73l42.93-42.92H166V192.87Z"/><path class="cls-3" d="M293.83,192.87q15.6,0,15.6,15.61v2q0,6-2.34,9.75,2.34,3.72,2.34,9.76v1.95q0,15.62-15.6,15.61H270.41q-15.6,0-15.6-15.61v-1.95q0-6,2.34-9.76-2.34-3.7-2.34-9.75v-2q0-15.61,15.6-15.61Zm3.9,15.61q0-3.9-3.9-3.9H270.41q-3.9,0-3.9,3.9v2q0,3.9,3.9,3.9h23.42q3.9,0,3.9-3.9Zm-31.22,23.41q0,3.9,3.9,3.9h23.42q3.9,0,3.9-3.9v-1.95q0-3.9-3.9-3.9H270.41q-3.9,0-3.9,3.9Z"/></g></g></g></svg>