<?xml version="1.0" encoding="utf-8"?>
<!-- Generator: Adobe Illustrator 27.1.1, SVG Export Plug-In . SVG Version: 6.00 Build 0)  -->
<svg version="1.2" baseProfile="tiny" id="Layer_1" xmlns="http://www.w3.org/2000/svg" xmlns:xlink="http://www.w3.org/1999/xlink"
	 x="0px" y="0px" viewBox="0 0 772 772" overflow="visible" xml:space="preserve">
<g>
	<circle fill="#262577" cx="386" cy="386" r="386"/>
	<circle fill="#FFFFFF" stroke="#000000" stroke-miterlimit="10" cx="386" cy="388" r="302.5"/>
	<g id="Art">
		<g id="CNMK">
			<path d="M329.6,459.36c-5.45,1.89-11.65-2.21-6.5-7.49c9.82-10.04,16.72-27.75,32.33-28.96c2.3,3.08-2.35,5.67-3.31,8.3
				c-1.29,4.1,3.06,7.25,6.81,7.4c1.56,0.35,2.69-0.69,3.29-2.06c3.18-6.05,24.89-20.11,13.39-26.1
				c-16.08-5.04-33.31,1.27-44.74,13.08c-9.61,9.29-23.74,23.33-24.17,37.18c4.01,11.31,30.96,13.39,39.46,6.97
				c2.89-3.09,2.13-9.22-2.29-10.46C339.89,456.1,333.49,458.65,329.6,459.36z"/>
			<path d="M374.5,436.5c8.69-9.69,7.29-19.65,11-31c0.37-2.7,1-4,4-6c3,3,5,4.08,5,8c0,11,0.73,22.24,0,33
				c10.95-18.42,38.91-34,61-34c9,0,14.31-2.46,21,4c-30.58,13.36-50,4-76.84,31.76c-7.85,8.11-12.59,19.09-22.4,25.23
				c-1.47-8.09,3.48-22.65,3.25-30.99c-4.24,5.05-12.63,16.49-18.53,19.56C366.5,444.5,370.47,440.99,374.5,436.5z"/>
			<path d="M390.12,462.59c8.1-9.83,15.86-20.66,26.54-27.97c1.14,8.57,0.64,17.25,0.84,25.89c8.7-7.06,12.33-20.25,20.7-26.23
				c4.34,28.39-12.04,78.52-47.79,72.08c13.13-11.91,32.74-21.11,32.01-41.78c-2.93,4.61-6.82,6.97-11.92,8.94
				c-1-6,0.15-10.22-2.24-16.07c-8.45,10.66-18.07,20.45-29.36,27.63C368.39,477.18,386.76,469.53,390.12,462.59z"/>
			<path d="M443.5,460.5c-4.03,40.1-50.67,54.36-35.76,60.44c19.69-2.13,30.53-24.12,41.73-37.11
				c5.26,13.35-11.99,19.79-15.85,30.23c1.91,17.15,29.49-13.05,29.94-20.23c8.42-23.29-15.96-22.63-3.49-29.41
				c13.89-18.5,34.68-23.94,53.29-35.66c33.5-40.97-66.7,14.67-60.11,30.31c-2.76-6.55,7.48-42.39-8.86-35.68
				c-3.95,4.04-0.35,9.28,1.05,13.58C446.45,444.71,445.15,452.89,443.5,460.5z"/>
		</g>
		<g id="Pen">
			<path fill="none" stroke="#000000" stroke-width="3" stroke-miterlimit="10" d="M317.63,405.44c3.48-3.47,6.77-5.66,10.78-8.17
				c1.84-1.2,3.09-1.77,2.09-3.77c-1.38-2.99-2-6-2.93-9.06c-4.35-14.39-9.56-28.2-19.04-39.87
				c-26.14-32.78-55.75-62.75-86.69-90.95c-4.86-4.56-9.76-9.16-13.52-14.66c-6.22-9.09-9.64-20.9-19.17-26.43
				c3.88,62.45,29.35,119.97,81.35,162.97c12.12,10.02,24.16,21.11,39.11,28.56C312.5,405.5,315.04,407.8,317.63,405.44z"/>
			<polyline points="368,479 332,394 315,408 369,480 			"/>
			<path fill="none" stroke="#000000" stroke-width="6" stroke-miterlimit="10" d="M191,215c1.74,5.28,1.83,7.83,3.57,13.12
				c1.63,4.94,3.26,9.89,5.38,14.64c2.34,5.25,5.25,10.21,8.15,15.17c3.39,5.79,6.78,11.57,10.17,17.36
				c4.48,7.64,8.99,15.32,14.75,22.03c8.37,9.74,16.75,17.82,24.97,27.68c3.74,4.48,9.31,8.79,12.91,13.38
				c7.41,9.43,16.58,17.31,24.63,26.2c4.76,5.26,9.12,10.87,13.47,16.47c4.71,6.07,9.78,13.38,14.49,19.45"/>
			<g>
				<path fill="none" stroke="#000000" stroke-width="3" stroke-miterlimit="10" d="M280.5,384.5c10.07,0.21,15.04,0.15,25.1,0.36
					c2.21,0.05,4.41,0.09,6.61,0.28"/>
				<path fill="none" stroke="#000000" stroke-width="3" stroke-miterlimit="10" d="M310.66,347.45c0.24,3.64-0.31,7.28-0.88,10.89
					c-1,6.33-2.07,12.65-3.19,18.96"/>
				<path fill="none" stroke="#000000" stroke-width="3" stroke-miterlimit="10" d="M278.34,308.83c-1.18,4.25-0.35,8.77,0.52,13.1
					c2.76,13.78,6.94,28.01,14.68,39.74c-9.22,0.08-17.82-4.27-26-8.52c-5.76-2.99-11.51-5.98-17.27-8.97
					c-3.64-1.89-7.3-3.79-10.6-6.23c-5.3-3.91-8.58-8.95-14.16-12.45"/>
				<path fill="none" stroke="#000000" stroke-width="3" stroke-miterlimit="10" d="M214.5,305.5c5.42,1.74,9.96,4.46,15.37,6.2
					c8.48,2.72,17.03,5.47,24.86,9.72"/>
				<path fill="none" stroke="#000000" stroke-width="3" stroke-miterlimit="10" d="M255.68,286.05c1.81,9.86,3.62,19.72,5.43,29.58
					c0.89,4.85,1.78,9.75,1.57,14.68"/>
				<path fill="none" stroke="#000000" stroke-width="3" stroke-miterlimit="10" d="M207.62,293.2
					c10.65,4.25,21.51,7.97,32.52,11.15"/>
				<path fill="none" stroke="#000000" stroke-width="3" stroke-miterlimit="10" d="M243.12,274.18c1.39,1.41,1.84,3.48,2.18,5.43
					c0.94,5.38,1.52,10.82,1.74,16.28c0.21,5.15,0.02,10.59-2.63,15.01"/>
				<path fill="none" stroke="#000000" stroke-width="3" stroke-miterlimit="10" d="M230.27,262.46c-1.74,9.68-2.17,19.6-1.3,29.39"
					/>
				<path fill="none" stroke="#000000" stroke-width="3" stroke-miterlimit="10" d="M202.67,280.35c6.96-1.01,14.22,0.15,20.51,3.3"
					/>
				<path fill="none" stroke="#000000" stroke-width="3" stroke-miterlimit="10" d="M195.9,258.44c4.38,3.52,7.14,8.75,11.53,12.25
					c3.28,2.61,7.28,4.12,11.21,5.58"/>
				<path fill="none" stroke="#000000" stroke-width="3" stroke-miterlimit="10" d="M216.99,249.75c0.73,6.69,0.25,13.52-1.41,20.05
					"/>
				<path fill="none" stroke="#000000" stroke-width="3" stroke-miterlimit="10" d="M193.75,247.87
					c4.88,4.49,10.08,8.63,15.54,12.39"/>
				<path fill="none" stroke="#000000" stroke-width="3" stroke-miterlimit="10" d="M207.54,237.79c-1.15,4.24-2.4,8.46-3.75,12.64"
					/>
				<path fill="none" stroke="#000000" stroke-width="3" stroke-miterlimit="10" d="M190.66,231.31c0.62,0.01,1.1,0.53,1.5,1
					c2.6,3.13,5.09,6.35,7.46,9.66"/>
				<path fill="none" stroke="#000000" stroke-width="3" stroke-miterlimit="10" d="M197.89,222.6c-1.34,3.2-2.32,6.55-2.92,9.97"/>
			</g>
		</g>
		<g id="Book">
			<path fill="none" stroke="#000000" stroke-width="4" stroke-miterlimit="10" d="M237.72,526.94c-2.24-3.39-1.72-7.87-1.72-11.94
				c0-5-0.85-11.89,0-17"/>
			<path fill="none" stroke="#000000" stroke-width="3" stroke-miterlimit="10" d="M570.91,398.71
				c-94,48.72-69.67,67.12-132.21,134.08C391.97,581.36,336.71,458.82,236,498"/>
			<path fill="none" stroke="#000000" stroke-width="2" stroke-miterlimit="10" d="M236,498c26.21-11.69,45.46-33.12,59.99-57.16
				c43.85-65.03,74.49-55.45,142.33-40.71c43.73,0.85,89.68,5.4,132.6-1.42"/>
			<path fill="none" stroke="#000000" stroke-width="4" stroke-miterlimit="10" d="M237.57,528.16
				c36.42-21.3,82.73-14.42,118.51,4.72c8.2,5.88,13.46,15.14,21.55,21.18c23.76,15.36,59.85,14.79,78.02-9.17
				c23.5-29.74,34.61-67.66,57.35-97.88c16.39-17.69,37.47-32.03,56-47"/>
			<path fill="none" stroke="#000000" stroke-width="3" stroke-miterlimit="10" d="M238,527c36.84-28.5,85.69-17.59,123,4
				c32.69,28.13,55.82,40.12,88,3c26.13-26.84,40.04-62.08,62.5-91.5C528.38,424.95,551,415,569,400"/>
			<path fill="none" stroke="#000000" stroke-width="3" stroke-miterlimit="10" d="M236,513c63.65-45.49,113.22,19.47,173.14,32.32"
				/>
		</g>
	</g>
	<g id="Text">
		<g>
			<path fill="#FFFFFF" d="M46.91,418.1l0.66-6.32c5.19,0.56,9.34,2.31,12.44,5.25c3.11,2.94,5.01,6.81,5.7,11.6
				c0.71,4.96,0.29,9.15-1.29,12.55c-1.57,3.4-4.16,6.19-7.76,8.36s-7.6,3.58-12,4.21c-4.8,0.69-9.11,0.38-12.95-0.94
				c-3.83-1.32-6.92-3.53-9.26-6.65s-3.8-6.71-4.39-10.77c-0.66-4.61-0.05-8.65,1.84-12.13c1.89-3.48,4.88-6.14,8.95-7.99l2.28,5.8
				c-3.2,1.55-5.41,3.45-6.65,5.7c-1.24,2.25-1.63,4.92-1.19,8c0.51,3.54,1.78,6.38,3.82,8.51c2.04,2.13,4.56,3.47,7.55,4.03
				c3,0.55,6.01,0.61,9.05,0.17c3.92-0.56,7.25-1.63,10.01-3.19c2.76-1.56,4.68-3.65,5.78-6.27c1.1-2.62,1.45-5.33,1.04-8.13
				c-0.49-3.41-1.89-6.16-4.2-8.25C54.06,419.56,50.91,418.38,46.91,418.1z"/>
			<path fill="#FFFFFF" d="M45.27,404.95c-6.24,0.08-10.89-1.59-13.94-5.02c-2.53-2.87-3.83-6.38-3.88-10.55
				c-0.06-4.63,1.41-8.44,4.41-11.42c3-2.98,7.17-4.51,12.53-4.58c4.34-0.06,7.76,0.55,10.26,1.82c2.5,1.27,4.46,3.14,5.87,5.61
				c1.41,2.47,2.13,5.17,2.17,8.11c0.06,4.72-1.4,8.55-4.39,11.5C55.3,403.36,50.96,404.87,45.27,404.95z M45.2,399.08
				c4.32-0.06,7.54-1.04,9.66-2.95c2.12-1.91,3.17-4.29,3.13-7.15c-0.04-2.83-1.15-5.18-3.33-7.03c-2.18-1.86-5.48-2.75-9.91-2.7
				c-4.17,0.05-7.31,1.04-9.44,2.96c-2.12,1.92-3.17,4.29-3.13,7.1c0.04,2.86,1.14,5.21,3.3,7.07
				C37.64,398.23,40.88,399.13,45.2,399.08z"/>
			<path fill="#FFFFFF" d="M62.42,365.86L16,362.73l0.38-5.7l46.42,3.13L62.42,365.86z"/>
			<path fill="#FFFFFF" d="M56.02,326.18l1.59-5.73c3.28,1.43,5.67,3.52,7.19,6.29s1.99,6.09,1.41,9.96
				c-0.72,4.88-2.79,8.52-6.22,10.93c-3.43,2.41-7.85,3.22-13.27,2.42c-5.61-0.83-9.75-2.92-12.42-6.26
				c-2.67-3.35-3.67-7.32-2.99-11.93c0.66-4.46,2.72-7.88,6.17-10.25c3.45-2.38,7.93-3.16,13.44-2.35c0.34,0.05,0.84,0.13,1.5,0.25
				l-3.68,24.87c3.69,0.33,6.65-0.29,8.87-1.87c2.22-1.57,3.54-3.75,3.95-6.54c0.31-2.07,0.02-3.92-0.85-5.55
				C59.85,328.81,58.28,327.39,56.02,326.18z M44.15,343.38l2.75-18.62c-2.84-0.16-5.05,0.24-6.63,1.2
				c-2.44,1.48-3.88,3.65-4.3,6.52c-0.38,2.6,0.16,4.91,1.64,6.93C39.08,341.44,41.26,342.76,44.15,343.38z"/>
			<path fill="#FFFFFF" d="M71.66,316.21l2.21-5.16c1.72,0.21,3.09-0.1,4.11-0.92c1.38-1.1,2.39-2.84,3.01-5.21
				c0.67-2.56,0.68-4.67,0.02-6.33c-0.66-1.66-1.84-2.98-3.55-3.95c-1.05-0.58-3.38-1.34-6.99-2.26c2.21,3.16,2.84,6.54,1.9,10.15
				c-1.18,4.48-3.71,7.52-7.59,9.13c-3.88,1.61-8.08,1.81-12.6,0.62c-3.11-0.82-5.83-2.14-8.17-3.95c-2.33-1.82-3.94-3.98-4.81-6.5
				c-0.87-2.52-0.93-5.22-0.17-8.1c1.01-3.85,3.4-6.61,7.17-8.29l-3.93-1.03l1.34-5.1l28.18,7.41c5.08,1.33,8.54,2.8,10.38,4.39
				c1.85,1.59,3.09,3.67,3.73,6.23c0.64,2.56,0.53,5.48-0.33,8.76c-1.02,3.89-2.72,6.8-5.1,8.73
				C78.1,316.76,75.16,317.22,71.66,316.21z M53.28,306.49c4.28,1.12,7.62,1.09,10.03-0.09c2.41-1.18,3.95-3.05,4.62-5.61
				c0.67-2.54,0.25-4.92-1.25-7.16c-1.5-2.23-4.34-3.9-8.51-5c-3.99-1.05-7.23-0.96-9.72,0.28c-2.49,1.24-4.06,3.11-4.72,5.6
				c-0.65,2.46-0.2,4.81,1.35,7.05S49.35,305.46,53.28,306.49z"/>
			<path fill="#FFFFFF" d="M41.67,265.81l-6.2-2.17l1.89-5.39l6.2,2.17L41.67,265.81z M79.38,279.01l-31.81-11.13l1.89-5.39
				l31.81,11.13L79.38,279.01z"/>
			<path fill="#FFFFFF" d="M93.27,244.5l-4.53-2.01c2.42,3.94,2.72,7.97,0.89,12.09c-0.81,1.82-1.91,3.36-3.3,4.63
				c-1.4,1.27-2.79,2.05-4.18,2.35c-1.39,0.3-2.92,0.26-4.59-0.11c-1.12-0.24-2.79-0.86-5.02-1.84l-19.09-8.46l2.31-5.22l17.09,7.57
				c2.73,1.21,4.61,1.92,5.66,2.12c1.52,0.28,2.91,0.06,4.16-0.66c1.25-0.72,2.23-1.86,2.92-3.43c0.69-1.57,0.94-3.21,0.75-4.95
				c-0.19-1.73-0.86-3.18-1.99-4.37c-1.13-1.18-3.01-2.36-5.64-3.52l-16.51-7.32l2.31-5.22l30.82,13.65L93.27,244.5z"/>
			<path fill="#FFFFFF" d="M99.93,231.46l-40.88-22.22l2.73-5.02l40.88,22.22L99.93,231.46z"/>
			<path fill="#FFFFFF" d="M117.47,201.36l-36.9-28.35l3.85-5.01l43.86,2.88l-28.97-22.25l3.6-4.68l36.9,28.35l-3.85,5.01
				l-43.88-2.89l28.99,22.28L117.47,201.36z"/>
			<path fill="#FFFFFF" d="M159.1,146.6c-0.22,2.77-0.76,5.11-1.62,7.01s-2.08,3.66-3.67,5.24c-2.62,2.62-5.27,3.99-7.95,4.12
				c-2.69,0.13-5.02-0.8-7.01-2.79c-1.17-1.17-1.97-2.5-2.4-3.99c-0.44-1.5-0.51-2.97-0.24-4.41c0.28-1.44,0.8-2.85,1.58-4.23
				c0.58-1,1.58-2.4,2.98-4.2c2.87-3.65,4.81-6.52,5.81-8.6c-0.54-0.57-0.88-0.93-1.03-1.08c-1.65-1.65-3.19-2.42-4.62-2.33
				c-1.94,0.12-3.93,1.2-5.97,3.23c-1.9,1.9-2.97,3.64-3.21,5.21c-0.24,1.57,0.27,3.42,1.53,5.54l-4.49,3.41
				c-1.33-2.05-2.11-4.01-2.33-5.87s0.17-3.85,1.16-5.97c0.99-2.12,2.52-4.2,4.56-6.25c2.03-2.04,3.93-3.45,5.68-4.25
				c1.75-0.79,3.29-1.13,4.61-1c1.32,0.13,2.66,0.62,4.01,1.49c0.82,0.55,2.13,1.73,3.93,3.52l5.39,5.38
				c3.76,3.75,6.22,6.04,7.39,6.86c1.17,0.82,2.46,1.43,3.88,1.84l-4.22,4.22C161.59,148.31,160.34,147.6,159.1,146.6z
				 M149.74,137.92c-0.87,2.07-2.56,4.77-5.07,8.13c-1.42,1.9-2.33,3.35-2.71,4.33c-0.39,0.99-0.48,1.96-0.28,2.91
				c0.2,0.95,0.66,1.78,1.36,2.48c1.08,1.08,2.38,1.57,3.92,1.47c1.53-0.1,3.08-0.93,4.65-2.51c1.56-1.56,2.6-3.28,3.13-5.17
				c0.53-1.89,0.49-3.71-0.13-5.47c-0.48-1.35-1.61-2.91-3.39-4.69L149.74,137.92z"/>
			<path fill="#FFFFFF" d="M179.3,127.68l3.88,3.33c-1.01,1.29-2,2.35-2.97,3.17c-1.58,1.34-3.03,2.12-4.32,2.36
				c-1.3,0.24-2.47,0.09-3.51-0.42c-1.04-0.52-2.67-2.09-4.88-4.71L155,116.57l-3.2,2.7l-2.86-3.4l3.2-2.7l-5.38-6.38l2.14-6.28
				l7.59,9l4.39-3.7l2.86,3.4l-4.39,3.7l12.7,15.07c1.05,1.25,1.8,1.98,2.25,2.21c0.45,0.23,0.94,0.3,1.47,0.21
				c0.52-0.08,1.11-0.4,1.76-0.94C178.01,129.05,178.61,128.46,179.3,127.68z M182.69,144.16l-3.76-4.47l4.49-3.78l3.76,4.46
				c0.96,1.13,1.56,2.45,1.8,3.94s-0.03,3.05-0.83,4.66l-2.48-0.77c0.96-1.97,0.71-3.95-0.76-5.92L182.69,144.16z"/>
			<path fill="#FFFFFF" d="M163.77,95.66l-3.96-5.24l4.56-3.45l3.96,5.24L163.77,95.66z M187.88,127.53l-20.33-26.88l4.56-3.45
				l20.33,26.88L187.88,127.53z"/>
			<path fill="#FFFFFF" d="M189.08,105.27c-3.36-5.26-4.39-10.09-3.09-14.49c1.1-3.66,3.4-6.62,6.91-8.87
				c3.9-2.5,7.91-3.26,12.03-2.28c4.11,0.97,7.61,3.71,10.5,8.22c2.34,3.65,3.63,6.88,3.87,9.67c0.24,2.8-0.31,5.44-1.67,7.94
				c-1.35,2.5-3.27,4.54-5.75,6.12c-3.98,2.54-8,3.32-12.08,2.34C195.72,112.96,192.14,110.07,189.08,105.27z M194.02,102.11
				c2.33,3.64,4.86,5.85,7.6,6.65c2.74,0.79,5.32,0.42,7.73-1.12c2.39-1.53,3.79-3.71,4.22-6.54c0.42-2.83-0.56-6.11-2.94-9.84
				c-2.24-3.51-4.74-5.66-7.5-6.45c-2.75-0.79-5.31-0.43-7.68,1.09c-2.41,1.54-3.83,3.71-4.26,6.53
				C190.75,95.25,191.7,98.47,194.02,102.11z"/>
			<path fill="#FFFFFF" d="M231,99.05l-14.9-30.23l4.61-2.27l2.12,4.3c0.58-4.42,2.97-7.66,7.17-9.72c1.82-0.9,3.66-1.39,5.51-1.49
				c1.85-0.1,3.42,0.2,4.7,0.89c1.28,0.69,2.44,1.69,3.46,3c0.66,0.86,1.57,2.47,2.74,4.84l9.16,18.59l-5.12,2.52l-9.06-18.39
				c-1.03-2.09-2-3.55-2.91-4.39c-0.91-0.84-2.02-1.32-3.34-1.43c-1.32-0.12-2.66,0.16-4.03,0.84c-2.18,1.08-3.73,2.7-4.63,4.86
				s-0.4,5.19,1.51,9.06l8.14,16.51L231,99.05z"/>
			<path fill="#FFFFFF" d="M283.28,72.01c-1.38,2.41-2.87,4.29-4.46,5.65c-1.59,1.36-3.44,2.42-5.55,3.17
				c-3.48,1.25-6.47,1.36-8.95,0.33c-2.48-1.03-4.2-2.87-5.15-5.52c-0.56-1.55-0.71-3.1-0.47-4.64c0.24-1.54,0.8-2.9,1.67-4.09
				c0.87-1.19,1.95-2.24,3.24-3.15c0.95-0.66,2.45-1.5,4.49-2.52c4.16-2.08,7.13-3.84,8.92-5.3c-0.25-0.74-0.4-1.22-0.47-1.42
				c-0.79-2.19-1.85-3.55-3.19-4.08c-1.81-0.72-4.07-0.6-6.78,0.38c-2.53,0.91-4.24,2.02-5.12,3.34s-1.21,3.21-0.98,5.66l-5.51,1.17
				c-0.33-2.42-0.2-4.52,0.4-6.3c0.6-1.78,1.8-3.41,3.6-4.9s4.07-2.73,6.8-3.71c2.71-0.97,5.02-1.44,6.94-1.41
				c1.92,0.03,3.45,0.38,4.6,1.06s2.14,1.7,2.99,3.06c0.51,0.85,1.19,2.47,2.05,4.86l2.58,7.17c1.79,5,3.04,8.12,3.75,9.36
				c0.7,1.24,1.61,2.35,2.73,3.32l-5.62,2.02C284.8,74.62,283.98,73.45,283.28,72.01z M278.52,60.17c-1.67,1.5-4.35,3.23-8.05,5.19
				c-2.1,1.11-3.53,2.03-4.3,2.76c-0.77,0.73-1.27,1.56-1.49,2.51c-0.22,0.95-0.17,1.89,0.17,2.82c0.52,1.43,1.49,2.43,2.92,3
				c1.43,0.57,3.19,0.47,5.28-0.28c2.07-0.74,3.75-1.86,5.04-3.34c1.29-1.49,2.03-3.15,2.22-5c0.14-1.42-0.21-3.32-1.06-5.69
				L278.52,60.17z"/>
			<path fill="#FFFFFF" d="M298.81,71.71l-12.13-44.92l5.52-1.49l12.13,44.92L298.81,71.71z"/>
			<path fill="#FFFFFF" d="M331.32,25.18l0.96,6.56l-6.06,0.89l-0.76-5.18c-0.41-2.81-0.37-4.89,0.11-6.24
				c0.63-1.8,1.84-3.27,3.62-4.41l1.7,2c-1.08,0.65-1.82,1.49-2.23,2.52c-0.41,1.03-0.51,2.46-0.3,4.29L331.32,25.18z M341.06,23.76
				l0.96,6.56l-6.06,0.88l-0.76-5.18c-0.41-2.81-0.37-4.88,0.12-6.24c0.64-1.8,1.84-3.27,3.62-4.41l1.7,2
				c-1.08,0.65-1.82,1.49-2.23,2.52c-0.41,1.03-0.51,2.46-0.3,4.29L341.06,23.76z"/>
			<path fill="#FFFFFF" d="M354.76,60.52l-1.2-46.51l9.26-0.24l11.86,32.65c1.09,3.04,1.89,5.32,2.4,6.83
				c0.49-1.71,1.25-4.21,2.28-7.52l10.3-32.65l8.28-0.21l1.2,46.51l-5.93,0.15l-1-38.93L379.7,59.88l-5.55,0.14l-14.48-39.25
				l1.02,39.6L354.76,60.52z"/>
			<path fill="#FFFFFF" d="M408.78,60.68l2.74-33.59l5.69,0.46l-2.74,33.59L408.78,60.68z M412.02,20.85l0.53-6.55l5.7,0.46
				l-0.53,6.55L412.02,20.85z"/>
			<path fill="#FFFFFF" d="M423.92,61.85l7.44-45.93l5.64,0.91l-2.67,16.48c3.12-2.62,6.69-3.61,10.7-2.96
				c2.46,0.4,4.53,1.23,6.19,2.5c1.66,1.27,2.74,2.82,3.25,4.66c0.51,1.84,0.49,4.39-0.03,7.65l-3.42,21.08l-5.64-0.91l3.42-21.08
				c0.46-2.82,0.18-4.97-0.83-6.45c-1.01-1.48-2.64-2.41-4.87-2.77c-1.67-0.27-3.31-0.09-4.93,0.54c-1.61,0.63-2.85,1.63-3.72,3.01
				c-0.87,1.38-1.51,3.38-1.94,5.99l-2.95,18.2L423.92,61.85z"/>
			<path fill="#FFFFFF" d="M482.22,70.07c-2.52,1.17-4.82,1.84-6.91,2.04c-2.08,0.19-4.21-0.02-6.37-0.62
				c-3.57-0.99-6.07-2.62-7.5-4.9c-1.43-2.28-1.77-4.77-1.02-7.48c0.44-1.59,1.21-2.94,2.3-4.06s2.33-1.91,3.72-2.38
				s2.88-0.7,4.46-0.7c1.16,0.02,2.87,0.19,5.12,0.53c4.59,0.7,8.04,0.98,10.34,0.83c0.23-0.75,0.37-1.22,0.43-1.43
				c0.62-2.24,0.54-3.97-0.24-5.17c-1.06-1.63-2.98-2.84-5.75-3.61c-2.59-0.72-4.63-0.8-6.11-0.23c-1.49,0.57-2.84,1.92-4.07,4.06
				l-5.18-2.23c1.13-2.17,2.45-3.8,3.97-4.91c1.51-1.11,3.44-1.75,5.77-1.92c2.33-0.18,4.89,0.12,7.69,0.9
				c2.77,0.77,4.94,1.72,6.49,2.86c1.55,1.13,2.6,2.31,3.14,3.52c0.54,1.21,0.76,2.62,0.67,4.22c-0.08,0.99-0.46,2.71-1.13,5.15
				L490,61.89c-1.42,5.12-2.2,8.39-2.35,9.81c-0.14,1.42-0.04,2.85,0.31,4.29l-5.75-1.6C481.96,73.08,481.96,71.64,482.22,70.07z
				 M485.18,57.65c-2.22,0.26-5.41,0.12-9.57-0.42c-2.35-0.3-4.06-0.38-5.11-0.23c-1.05,0.15-1.94,0.54-2.67,1.19
				c-0.73,0.64-1.23,1.45-1.49,2.4c-0.41,1.47-0.19,2.84,0.65,4.13c0.84,1.29,2.33,2.23,4.47,2.82c2.12,0.59,4.14,0.65,6.04,0.18
				c1.91-0.47,3.47-1.4,4.7-2.79c0.94-1.08,1.74-2.83,2.42-5.26L485.18,57.65z"/>
			<path fill="#FFFFFF" d="M495.25,78.84l11.58-31.65l5.37,1.96L500.61,80.8L495.25,78.84z M508.97,41.31l2.26-6.17l5.37,1.96
				l-2.26,6.17L508.97,41.31z"/>
			<path fill="#FFFFFF" d="M509.6,84.33l18.06-42.88l5.27,2.22l-18.06,42.88L509.6,84.33z"/>
			<path fill="#FFFFFF" d="M541.11,98.8l24.31-39.67l5.25,3.22l-12.06,19.67l31.76-7.6l7.12,4.36L571,84.66l2.91,34.24l-6.93-4.25
				l-1.82-28.74l-10.38,2.35l-8.42,13.75L541.11,98.8z"/>
			<path fill="#FFFFFF" d="M586.33,107.5c3.9-4.87,8.14-7.4,12.73-7.58c3.82-0.14,7.36,1.1,10.62,3.7
				c3.62,2.89,5.63,6.45,6.03,10.65c0.4,4.21-1.07,8.4-4.42,12.58c-2.71,3.39-5.35,5.64-7.92,6.77c-2.57,1.13-5.25,1.45-8.05,0.97
				c-2.8-0.48-5.35-1.64-7.65-3.47c-3.68-2.95-5.72-6.51-6.1-10.69S582.78,111.95,586.33,107.5z M590.92,111.17
				c-2.7,3.37-3.98,6.48-3.85,9.34c0.13,2.85,1.31,5.17,3.54,6.96c2.21,1.77,4.73,2.4,7.55,1.89c2.82-0.51,5.61-2.49,8.37-5.94
				c2.6-3.25,3.84-6.31,3.7-9.17c-0.14-2.86-1.3-5.17-3.5-6.93c-2.23-1.79-4.75-2.43-7.55-1.94
				C596.36,105.87,593.61,107.8,590.92,111.17z"/>
			<path fill="#FFFFFF" d="M602.94,146.43l3.33,4.52c-1.05,1.37-1.48,2.71-1.29,4.01c0.25,1.75,1.24,3.5,2.97,5.24
				c1.86,1.88,3.68,2.95,5.44,3.23c1.76,0.27,3.5-0.08,5.21-1.06c1.03-0.61,2.86-2.24,5.49-4.88c-3.85,0.3-7.08-0.87-9.71-3.51
				c-3.27-3.29-4.61-7.01-4.03-11.17c0.58-4.16,2.53-7.88,5.85-11.18c2.28-2.27,4.8-3.95,7.54-5.04c2.75-1.09,5.43-1.38,8.04-0.85
				c2.61,0.52,4.97,1.84,7.07,3.96c2.8,2.82,3.98,6.28,3.51,10.38l2.88-2.87l3.71,3.74L628.3,161.5c-3.72,3.7-6.74,5.94-9.04,6.73
				c-2.31,0.79-4.73,0.81-7.26,0.06c-2.53-0.75-4.99-2.32-7.38-4.72c-2.83-2.85-4.48-5.79-4.94-8.82
				C599.21,151.7,600.3,148.93,602.94,146.43z M620.63,135.51c-3.14,3.12-4.81,6.02-5.01,8.69c-0.2,2.68,0.63,4.95,2.49,6.83
				c1.85,1.86,4.12,2.71,6.8,2.54c2.69-0.16,5.56-1.77,8.62-4.81c2.93-2.91,4.49-5.75,4.68-8.53c0.19-2.77-0.62-5.08-2.44-6.91
				c-1.79-1.8-4.04-2.6-6.76-2.41C626.31,131.11,623.52,132.64,620.63,135.51z"/>
			<path fill="#FFFFFF" d="M647.96,186.11c-2.72-0.54-4.98-1.35-6.78-2.42c-1.8-1.07-3.39-2.49-4.78-4.25
				c-2.3-2.9-3.36-5.7-3.18-8.38c0.18-2.68,1.38-4.9,3.58-6.64c1.29-1.03,2.71-1.67,4.24-1.93c1.54-0.26,3-0.17,4.41,0.27
				c1.4,0.44,2.74,1.13,4.02,2.06c0.93,0.7,2.2,1.84,3.83,3.45c3.29,3.27,5.92,5.53,7.87,6.76c0.63-0.47,1.02-0.77,1.19-0.9
				c1.82-1.45,2.77-2.89,2.85-4.32c0.11-1.95-0.74-4.05-2.52-6.3c-1.67-2.11-3.27-3.37-4.8-3.79s-3.43-0.13-5.68,0.88l-2.87-4.85
				c2.19-1.09,4.22-1.63,6.1-1.63c1.88,0,3.81,0.61,5.8,1.85c1.99,1.23,3.88,2.98,5.68,5.26c1.79,2.26,2.97,4.3,3.56,6.13
				c0.59,1.83,0.74,3.4,0.46,4.7c-0.28,1.3-0.93,2.57-1.94,3.81c-0.64,0.76-1.96,1.92-3.95,3.5l-5.97,4.73
				c-4.16,3.3-6.72,5.48-7.67,6.54c-0.95,1.06-1.71,2.28-2.27,3.64l-3.71-4.68C645.97,188.39,646.82,187.23,647.96,186.11z
				 M657.67,177.82c-1.95-1.1-4.45-3.09-7.49-5.97c-1.73-1.63-3.06-2.7-3.99-3.2c-0.94-0.5-1.89-0.71-2.85-0.61
				c-0.97,0.09-1.84,0.45-2.62,1.06c-1.19,0.95-1.83,2.19-1.91,3.72s0.57,3.17,1.95,4.92c1.37,1.72,2.96,2.96,4.78,3.7
				c1.82,0.75,3.63,0.91,5.44,0.51c1.39-0.32,3.07-1.26,5.05-2.83L657.67,177.82z M679.76,158.12l2.43,3.06
				c-2.27,1.4-4.46,1.9-6.58,1.51c-2.12-0.39-4.01-1.64-5.68-3.74c-1.68-2.12-2.47-4.25-2.38-6.4c0.1-2.14,1.09-4.17,2.98-6.07
				l2.42,3.06c-0.94,1.13-1.42,2.25-1.43,3.38c-0.01,1.13,0.45,2.27,1.37,3.43c1.06,1.34,2.14,2.15,3.22,2.41
				C677.2,159.02,678.41,158.81,679.76,158.12z"/>
			<path fill="#FFFFFF" d="M653.21,200.7l38.57-26.03l3.2,4.74l-38.57,26.03L653.21,200.7z"/>
			<path fill="#FFFFFF" d="M661.86,213.45l29.37-16.53l2.52,4.48l-4.18,2.35c4.44,0.34,7.81,2.55,10.1,6.62
				c1,1.77,1.59,3.58,1.79,5.42c0.2,1.84-0.01,3.42-0.63,4.74c-0.62,1.32-1.55,2.53-2.81,3.62c-0.82,0.7-2.38,1.7-4.68,3
				l-18.06,10.16l-2.8-4.98l17.87-10.06c2.03-1.14,3.44-2.19,4.22-3.14c0.79-0.95,1.2-2.09,1.25-3.41c0.04-1.32-0.31-2.65-1.05-3.98
				c-1.19-2.12-2.9-3.57-5.11-4.35c-2.21-0.78-5.2-0.12-8.96,2l-16.04,9.03L661.86,213.45z"/>
			<path fill="#FFFFFF" d="M679.24,245.99l30.6-14.14l2.4,5.19l-30.6,14.14L679.24,245.99z M715.52,229.23l5.96-2.76l2.4,5.19
				l-5.96,2.76L715.52,229.23z"/>
			<path fill="#FFFFFF" d="M704.88,276.07l1.28,5.52c-3.84,0.78-7.23,0.37-10.17-1.23c-2.94-1.6-5.05-4.13-6.34-7.58
				c-1.62-4.32-1.5-8.32,0.34-12c1.84-3.68,5.4-6.51,10.67-8.48c3.41-1.28,6.6-1.83,9.58-1.65c2.98,0.17,5.54,1.18,7.68,3.01
				c2.14,1.83,3.72,4.1,4.74,6.82c1.28,3.43,1.46,6.56,0.54,9.39c-0.92,2.83-2.86,5.15-5.82,6.95l-2.75-4.9
				c1.94-1.29,3.2-2.76,3.8-4.42c0.6-1.66,0.57-3.38-0.1-5.17c-1.01-2.69-2.79-4.52-5.36-5.49c-2.56-0.96-5.93-0.66-10.12,0.9
				c-4.24,1.59-7.02,3.55-8.33,5.89c-1.32,2.34-1.48,4.82-0.5,7.44c0.79,2.1,2.08,3.61,3.9,4.54S702.06,276.69,704.88,276.07z"/>
			<path fill="#FFFFFF" d="M713,310.47l0.75,5.9c-3.57-0.05-6.59-1.06-9.06-3.03c-2.47-1.97-4.18-4.85-5.15-8.64
				c-1.22-4.78-0.71-8.94,1.52-12.49c2.23-3.55,6-6,11.31-7.35c5.5-1.4,10.12-1.07,13.88,0.99c3.75,2.06,6.21,5.34,7.36,9.85
				c1.11,4.37,0.53,8.31-1.73,11.84c-2.27,3.53-6.1,5.98-11.49,7.35c-0.33,0.08-0.82,0.2-1.48,0.35l-6.21-24.36
				c-3.54,1.12-6.03,2.83-7.47,5.14c-1.44,2.31-1.82,4.83-1.12,7.56c0.52,2.03,1.49,3.63,2.92,4.79
				C708.46,309.52,710.45,310.22,713,310.47z M717.32,290.01l4.65,18.24c2.68-0.95,4.57-2.17,5.65-3.67
				c1.68-2.31,2.17-4.87,1.45-7.67c-0.65-2.54-2.04-4.46-4.19-5.76C722.74,289.85,720.22,289.47,717.32,290.01z"/>
			<path fill="#FFFFFF" d="M712.39,347.52c-2.07-1.85-3.6-3.7-4.6-5.54c-1-1.84-1.65-3.87-1.95-6.09c-0.5-3.67,0.01-6.61,1.54-8.83
				c1.52-2.21,3.68-3.51,6.47-3.89c1.63-0.22,3.18-0.05,4.63,0.51c1.46,0.56,2.67,1.39,3.65,2.48c0.98,1.09,1.79,2.37,2.41,3.82
				c0.44,1.07,0.96,2.71,1.53,4.92c1.17,4.5,2.28,7.77,3.32,9.83c0.78-0.08,1.27-0.14,1.48-0.17c2.31-0.31,3.86-1.07,4.66-2.27
				c1.08-1.62,1.43-3.86,1.04-6.71c-0.36-2.66-1.1-4.57-2.2-5.71c-1.11-1.14-2.88-1.85-5.34-2.14l0-5.64
				c2.44,0.18,4.46,0.75,6.08,1.7c1.62,0.95,2.96,2.47,4.05,4.54c1.08,2.07,1.82,4.55,2.21,7.42c0.39,2.85,0.37,5.21-0.06,7.09
				c-0.43,1.87-1.09,3.3-2,4.28c-0.9,0.98-2.11,1.74-3.61,2.29c-0.94,0.32-2.67,0.65-5.18,0.99l-7.55,1.03
				c-5.26,0.72-8.57,1.29-9.94,1.72c-1.36,0.43-2.63,1.09-3.81,1.98l-0.81-5.91C709.52,348.47,710.84,347.91,712.39,347.52z
				 M724.97,345.33c-1.12-1.94-2.25-4.93-3.4-8.95c-0.65-2.28-1.25-3.88-1.8-4.78c-0.55-0.91-1.27-1.57-2.14-1.98
				c-0.88-0.42-1.81-0.55-2.8-0.42c-1.51,0.21-2.69,0.95-3.54,2.23c-0.85,1.28-1.13,3.02-0.83,5.22c0.3,2.18,1.04,4.06,2.22,5.62
				c1.18,1.57,2.66,2.64,4.42,3.21c1.36,0.43,3.29,0.48,5.79,0.14L724.97,345.33z"/>
			<path fill="#FFFFFF" d="M709.72,362.53l33.7-0.73l0.11,5.14l-4.79,0.1c3.76,2.4,5.68,5.93,5.78,10.61
				c0.04,2.03-0.28,3.91-0.97,5.62s-1.62,3.01-2.79,3.88c-1.17,0.87-2.56,1.49-4.18,1.87c-1.05,0.23-2.9,0.38-5.55,0.44l-20.72,0.45
				l-0.12-5.71l20.5-0.44c2.33-0.05,4.06-0.31,5.21-0.78c1.14-0.47,2.05-1.28,2.71-2.42c0.66-1.15,0.98-2.48,0.95-4
				c-0.05-2.43-0.87-4.52-2.45-6.25c-1.58-1.73-4.53-2.55-8.85-2.46l-18.4,0.4L709.72,362.53z"/>
			<path fill="#FFFFFF" d="M707.99,421.06l4.93,0.45c-3.55-2.96-5.13-6.68-4.72-11.17c0.18-1.98,0.73-3.79,1.64-5.44
				c0.91-1.65,1.98-2.83,3.21-3.56s2.68-1.18,4.38-1.37c1.14-0.13,2.92-0.08,5.34,0.14l20.8,1.9l-0.52,5.69l-18.62-1.7
				c-2.97-0.27-4.98-0.34-6.04-0.2c-1.53,0.22-2.77,0.87-3.73,1.95c-0.96,1.08-1.52,2.47-1.67,4.18c-0.16,1.71,0.13,3.35,0.87,4.92
				s1.83,2.74,3.28,3.5c1.45,0.76,3.61,1.27,6.47,1.53l17.98,1.64l-0.52,5.69l-33.57-3.06L707.99,421.06z"/>
			<path fill="#FFFFFF" d="M744.14,451.01l6.53,1.19l-1.1,6.03l-5.15-0.94c-2.79-0.51-4.74-1.2-5.85-2.07
				c-1.52-1.2-2.54-2.83-3.04-4.88l2.47-0.97c0.25,1.21,0.82,2.18,1.71,2.91c0.89,0.73,2.19,1.29,3.91,1.67L744.14,451.01z
				 M745.91,441.34l6.52,1.19l-1.1,6.03l-5.15-0.94c-2.79-0.51-4.74-1.2-5.85-2.07c-1.52-1.2-2.54-2.83-3.04-4.88l2.47-0.97
				c0.25,1.21,0.82,2.18,1.71,2.91c0.89,0.73,2.19,1.29,3.91,1.67L745.91,441.34z"/>
		</g>
		<g>
			<path d="M207.53,193.98c-2.35-4.43-5.17-11.83-5.6-13.88l1.44-1.71c1.03,2.73,4.37,9.15,6.6,12.56L207.53,193.98z M213.33,188.86
				c-2.36-4.43-5.17-11.83-5.6-13.88l1.44-1.71c1.03,2.73,4.37,9.15,6.6,12.56L213.33,188.86z"/>
			<path d="M217.76,167.82l2.53-1.82l24.09,33.43l15.82-11.4l1.52,2.11l-18.35,13.23L217.76,167.82z"/>
			<path d="M282.72,169.9c1.3,2.4,2.53,4.54,3.85,6.56l-2.57,1.39l-2.83-4.82l-0.11,0.06c0.02,3.31-1.51,7.99-6.37,10.62
				c-3.49,1.89-10.33,3.3-15.94-7.04l-8.64-15.95l2.74-1.49l8.36,15.43c3.22,5.95,7.37,9.24,12.8,6.3c4-2.17,5.4-6.55,5.11-9.94
				c-0.18-1.01-0.54-2.22-1.13-3.31l-9.26-17.09l2.74-1.49L282.72,169.9z"/>
			<path d="M286.58,149.87c-0.88-2.72-1.61-4.74-2.55-7.03l2.78-0.9l1.87,5.13l0.12-0.04c0.81-4.02,2.86-7.42,7.74-9
				c4.08-1.32,8.12,0.38,10.62,3.66l0.12-0.04c0.24-1.99,0.91-3.71,1.73-5c1.42-2.17,3.11-3.67,6.27-4.7
				c2.91-0.94,10.23-1.54,13.88,9.71l5.67,17.5l-2.97,0.96l-5.59-17.25c-2.17-6.68-6.04-9.79-11.18-8.13
				c-3.71,1.2-5.71,4.93-5.89,8.4c0.03,0.95,0.11,2.02,0.47,3.13l6.17,19.04l-2.97,0.96l-6.03-18.61
				c-1.72-5.32-5.54-8.45-10.36-6.89c-3.96,1.28-6.07,5.52-6.06,9.34c0.03,0.95,0.17,2,0.51,3.05l5.93,18.3l-2.97,0.96
				L286.58,149.87z"/>
			<path d="M338.49,121.29c-1.41,0.25-2.58-0.79-2.84-2.2c-0.25-1.41,0.61-2.88,2.02-3.13s2.65,0.78,2.91,2.25
				c0.25,1.41-0.49,2.79-2.03,3.07L338.49,121.29z M343.64,158.4l-5.47-30.72l3.07-0.55l5.47,30.72L343.64,158.4z"/>
			<path d="M354.14,132.49c-0.22-2.85-0.46-4.99-0.84-7.43l2.92-0.23l0.63,5.56l0.13-0.01c1.41-3.63,5.15-6.73,10.2-7.13
				c2.98-0.23,11.01,0.63,11.92,12.3l1.47,18.66l-3.11,0.24L376,136.06c-0.45-5.7-3.05-10.65-9.47-10.15
				c-4.34,0.34-7.86,3.75-8.77,7.93c-0.14,0.73-0.25,1.78-0.17,2.75l1.52,19.31l-3.11,0.24L354.14,132.49z"/>
			<path d="M409.16,147.93c-0.13,2.47-0.2,5,0.06,7.42l-2.86-0.15l-0.22-4.5l-0.13-0.01c-1.69,2.32-5.27,4.93-10.27,4.66
				c-6.3-0.33-8.92-4.9-8.7-9.05c0.38-7.21,6.91-11.22,19.62-10.41l0.04-0.84c0.16-3.05-0.09-9.25-7.5-9.58
				c-2.73-0.14-5.62,0.42-7.98,1.92l-0.85-2.32c2.96-1.73,6.5-2.32,9.29-2.17c9.02,0.48,10.42,7.32,10.12,12.84L409.16,147.93z
				 M406.53,138.48c-6.8-0.56-15.82,0.01-16.21,7.47c-0.24,4.48,2.64,6.65,5.89,6.82c5.19,0.27,8.35-2.75,9.55-5.74
				c0.29-0.63,0.4-1.35,0.43-1.87L406.53,138.48z M396.04,110.65c0.25,2.68,2.02,4.92,4.87,5.08c3.38,0.18,5.07-2.27,5.38-4.53
				l2.34,0.12c-0.24,4.48-3.57,7.23-7.86,7c-5.52-0.29-7.25-4.42-7.07-7.8L396.04,110.65z"/>
			<path d="M430.64,154.4c1.42,1.39,3.64,3.03,6.37,3.65c4.82,1.1,7.69-0.98,8.41-4.15c0.77-3.36-0.86-5.6-4.83-8.37
				c-4.57-3.04-6.68-6.39-5.84-10.06c1.01-4.44,5.36-7.45,11.26-6.1c2.79,0.63,5.01,2.01,6.29,3.43l-1.71,2.21
				c-0.9-1.01-2.62-2.53-5.67-3.23c-3.87-0.88-6.46,1.13-7.09,3.92c-0.72,3.17,1.13,4.99,4.86,7.64c4.5,3.09,6.85,6.23,5.79,10.85
				c-1.18,5.2-6.04,7.76-12.25,6.34c-2.92-0.66-5.52-2.12-7.26-3.85L430.64,154.4z M430.7,170.82c2.75,0.23,5.5-0.41,6.12-3.14
				c0.35-1.52-0.33-3.21-1.46-4.4l2.71-0.18c1.09,1.05,1.97,3.05,1.52,5.01c-0.98,4.31-5.46,4.96-8.37,4.56L430.7,170.82z"/>
			<path d="M453.65,164.45l9.31-29.78l2.98,0.93l-9.31,29.78L453.65,164.45z M466.19,129.14c-1.37-0.43-1.93-1.89-1.5-3.26
				c0.43-1.37,1.87-2.28,3.23-1.85c1.37,0.43,1.99,1.92,1.54,3.34c-0.43,1.37-1.73,2.25-3.21,1.79L466.19,129.14z"/>
			<path d="M498.27,181.52c-1.51-0.01-5.03-0.2-9.13-2.18c-8.07-3.91-10.59-12.42-6.51-20.85c4.33-8.95,13.34-12.03,21.7-7.97
				c3.45,1.67,5.83,4.05,6.52,5.32l-2.1,1.8c-0.95-1.47-2.72-3.34-5.82-4.84c-7.54-3.65-14.18,0.21-17.38,6.82
				c-3.57,7.37-1.27,14.4,5.22,17.55c3.33,1.62,5.95,1.73,7.81,1.76L498.27,181.52z"/>
			<path d="M523.36,190.22c-1.34,2.08-2.65,4.24-3.63,6.48l-2.4-1.55l2.04-4.02l-0.11-0.07c-2.62,1.18-7.02,1.66-11.23-1.04
				c-5.3-3.41-5.31-8.68-3.06-12.17c3.91-6.07,11.56-6.32,22.21,0.69l0.46-0.71c1.65-2.57,4.5-8.08-1.76-12.03
				c-2.3-1.48-5.09-2.42-7.88-2.29l0.41-2.44c3.42-0.04,6.8,1.21,9.15,2.72c7.6,4.89,5.41,11.52,2.42,16.17L523.36,190.22z
				 M525.77,180.72c-5.63-3.86-13.74-7.84-17.79-1.55c-2.43,3.77-1,7.08,1.73,8.84c4.37,2.81,8.61,1.75,11.14-0.25
				c0.57-0.41,1.01-0.97,1.29-1.41L525.77,180.72z"/>
			<path d="M539.93,184.71c1.93-2.45,3.85-4.99,5.59-7.51l2.25,1.77l-3.8,5.03l0.15,0.12c3.53-2.27,7.97-2.66,11.29-0.04
				c0.36,0.28,0.67,0.62,0.94,0.91l-1.81,2.3c-0.32-0.33-0.67-0.61-1.13-0.98c-3.37-2.66-8.06-1.64-11.82,1.77
				c-0.72,0.59-1.41,1.37-2.05,2.19l-10.66,13.53l-2.45-1.93L539.93,184.71z"/>
			<path d="M571.12,189.93l-4.73,5.01l6.47,6.12l-1.74,1.84l-6.47-6.12l-13.93,14.74c-2.72,2.88-3.52,5.53-1.11,7.8
				c1.18,1.12,2.17,1.78,2.91,2.12l-1.32,1.97c-1.02-0.43-2.29-1.18-3.66-2.47c-1.65-1.56-2.53-3.38-2.4-5.22
				c0.08-2.17,1.53-4.46,3.72-6.77l13.52-14.32l-3.83-3.62l1.74-1.84l3.83,3.62l3.93-4.16L571.12,189.93z"/>
			<path d="M567.6,217.52c-7.54,6.48-6.99,13.2-2.8,18.08c2.96,3.45,5.18,4.63,6.96,5.41l-1.32,2.16c-1.26-0.46-4.37-1.99-7.92-6.13
				c-5.84-6.8-4.55-15.28,2.4-21.25c7.89-6.78,16.71-6.47,21.97-0.36c6.65,7.74,0.62,15.49-2.78,18.41
				c-0.64,0.55-0.99,0.85-1.51,1.13L567.6,217.52z M582.43,231c3.35-2.79,7.14-8.45,2.23-14.17c-4.49-5.23-11.03-3.46-15.06-0.78
				L582.43,231z"/>
			<path d="M612.88,227.71c-4.66,1.84-12.33,3.81-14.42,4l-1.53-1.62c2.83-0.72,9.59-3.31,13.22-5.14L612.88,227.71z M617.32,234.04
				c-4.66,1.84-12.33,3.81-14.42,4l-1.53-1.62c2.83-0.72,9.59-3.31,13.22-5.14L617.32,234.04z"/>
		</g>
		<g>
			<path fill="#FFFFFF" d="M348.14,744.03c-2.21,0.91-6.83,2.34-12.81,2.34c-5.79,0-11.05-1.43-15.47-5.72
				c-3.64-3.51-6.04-9.42-6.04-16.51c0-12.16,8-22.49,22.88-22.49c4.68,0,8.52,1.1,10.21,1.95l-1.04,2.54
				c-2.27-1.11-5.14-1.89-9.36-1.89c-12.03,0-19.44,7.87-19.44,19.76c0,12.35,7.22,19.76,18.79,19.76c4.62,0,7.54-0.65,9.17-1.56
				v-15.47h-10.14v-2.54h13.26V744.03z"/>
			<path fill="#FFFFFF" d="M377.19,738.51c0,2.47,0.07,5,0.46,7.41h-2.86l-0.46-4.49h-0.13c-1.56,2.41-5.01,5.2-10.01,5.2
				c-6.31,0-9.17-4.42-9.17-8.58c0-7.21,6.31-11.57,19.05-11.44v-0.84c0-3.06-0.58-9.23-8-9.17c-2.73,0-5.59,0.71-7.87,2.34
				l-0.98-2.28c2.86-1.88,6.37-2.67,9.17-2.67c9.04,0,10.79,6.76,10.79,12.29V738.51z M374.07,729.21
				c-6.83-0.19-15.8,0.85-15.8,8.32c0,4.49,2.99,6.5,6.24,6.5c5.2,0,8.19-3.19,9.23-6.24c0.26-0.65,0.32-1.37,0.32-1.89V729.21z"/>
			<path fill="#FFFFFF" d="M387.27,699.7h3.12v46.22h-3.12V699.7z"/>
			<path fill="#FFFFFF" d="M420.48,738.51c0,2.47,0.07,5,0.46,7.41h-2.86l-0.46-4.49h-0.13c-1.56,2.41-5,5.2-10.01,5.2
				c-6.3,0-9.17-4.42-9.17-8.58c0-7.21,6.31-11.57,19.05-11.44v-0.84c0-3.06-0.59-9.23-8-9.17c-2.73,0-5.59,0.71-7.87,2.34
				l-0.97-2.28c2.86-1.88,6.37-2.67,9.17-2.67c9.04,0,10.79,6.76,10.79,12.29V738.51z M417.36,729.21
				c-6.83-0.19-15.8,0.85-15.8,8.32c0,4.49,2.99,6.5,6.24,6.5c5.2,0,8.19-3.19,9.23-6.24c0.26-0.65,0.33-1.37,0.33-1.89V729.21z"/>
			<path fill="#FFFFFF" d="M434.85,707.83v6.89h8.9v2.54h-8.9v20.28c0,3.97,1.23,6.44,4.55,6.44c1.62,0,2.8-0.2,3.58-0.46l0.39,2.34
				c-1.04,0.39-2.47,0.72-4.36,0.72c-2.28,0-4.16-0.72-5.33-2.15c-1.43-1.62-1.95-4.29-1.95-7.48v-19.7h-5.26v-2.54h5.26V709
				L434.85,707.83z M432.25,758.33c2.73-0.39,5.26-1.62,5.26-4.42c0-1.56-1.04-3.05-2.4-3.96l2.6-0.78c1.3,0.78,2.6,2.54,2.6,4.55
				c0,4.42-4.23,6.04-7.15,6.3L432.25,758.33z"/>
			<path fill="#FFFFFF" d="M452.07,708.48c-1.43,0-2.41-1.24-2.41-2.67s1.11-2.73,2.54-2.73c1.43,0,2.47,1.24,2.47,2.73
				c0,1.43-0.97,2.67-2.54,2.67H452.07z M450.64,745.92v-31.2h3.12v31.2H450.64z"/>
		</g>
	</g>
</g>
</svg>
